<?xml version="1.0" encoding="utf-8"?>
<!-- Generator: Adobe Illustrator 21.0.2, SVG Export Plug-In . SVG Version: 6.00 Build 0)  -->
<svg version="1.1" id="Layer_1" xmlns="http://www.w3.org/2000/svg" xmlns:xlink="http://www.w3.org/1999/xlink" x="0px" y="0px"
	 viewBox="0 0 48 48" style="enable-background:new 0 0 48 48;" xml:space="preserve">
<style type="text/css">
	.st0{opacity:5.000000e-02;enable-background:new    ;}
	.st1{opacity:0.1;enable-background:new    ;}
	.st2{opacity:0.2;enable-background:new    ;}
	.st3{fill:#54504D;}
	.st4{fill-opacity:9.800000e-02;}
	.st5{fill:#F9F9F9;}
</style>
<g>
	<path class="st0" d="M36.3,5C42.2,9.1,46,15.8,46,23.5C46,35.9,35.9,46,23.5,46C15.8,46,9.1,42.2,5,36.3c1,1.8,2.3,3.5,3.8,5
		c4.1,3.7,9.5,6,15.5,6c12.7,0,23-10.3,23-23c0-6-2.3-11.4-6-15.5C39.8,7.3,38.1,6,36.3,5z M41.3,8.8c3.9,4.1,6.2,9.6,6.2,15.7
		c0,12.7-10.3,23-23,23c-6.1,0-11.6-2.4-15.7-6.2C12.9,45.4,18.7,48,25,48c12.7,0,23-10.3,23-23C48,18.7,45.4,12.9,41.3,8.8z"/>
	<path class="st1" d="M41.3,8.8c3.7,4.1,6,9.5,6,15.5c0,12.7-10.3,23-23,23c-6,0-11.4-2.3-15.5-6c4.1,3.9,9.6,6.2,15.7,6.2
		c12.7,0,23-10.3,23-23C47.5,18.4,45.1,12.9,41.3,8.8z"/>
	<path class="st2" d="M31.3,2.4C39.9,5.5,46,13.8,46,23.5C46,35.9,35.9,46,23.5,46c-9.7,0-18-6.1-21.1-14.8
		c3.9,12.1,16.9,18.7,29,14.8c9.4-3.1,15.9-11.8,15.9-21.8C47.2,14.3,40.8,5.4,31.3,2.4L31.3,2.4z"/>
</g>
<g>
	<path class="st3" d="M24,1c12.7,0,23,10.3,23,23S36.7,47,24,47S1,36.7,1,24S11.3,1,24,1z"/>
</g>
<g>
	<path class="st1" d="M40,7.5c3.7,4.1,6,9.5,6,15.5c0,12.7-10.3,23-23,23c-6,0-11.4-2.3-15.5-6c4.2,4.3,10,7,16.5,7
		c12.7,0,23-10.3,23-23C47,17.5,44.3,11.7,40,7.5z"/>
</g>
<g>
	<g>
		<path class="st4" d="M24,12v2.1c-1.9,0.2-3.7,0.8-5.2,1.9l-1.5-1.5l-2.1,2.1l1.5,1.5c-1.4,1.7-2.3,3.8-2.5,6H12v3h2.2
			c0.3,1.9,1.2,3.6,2.4,5l-1.4,1.4l2.1,2.1l1.6-1.6c1.6,1.1,3.4,1.7,5.2,1.9V38h3v-2.2c1.9-0.3,3.6-1.2,5-2.4l1.4,1.4l2.1-2.1
			l-1.6-1.6c0.9-1.3,1.5-2.7,1.8-4.2H38v-3H36c-0.2-1.9-0.8-3.7-1.9-5.2l1.5-1.5l-2.1-2.1L32,16.6c-1.4-1.2-3.2-2-5-2.4V12L24,12
			 M25,17c4.4,0,8,3.6,8,8l0,0c0,4.4-3.6,8-8,8s-8-3.6-8-8S20.6,17,25,17z M25,22c-1.7,0-3,1.3-3,3s1.3,3,3,3s3-1.3,3-3
			S26.7,22,25,22z"/>
		<path class="st5" d="M24,13c-6.1,0-11,4.9-11,11s4.9,11,11,11s11-4.9,11-11S30.1,13,24,13 M24,16c4.4,0,8,3.6,8,8s-3.6,8-8,8
			s-8-3.6-8-8S19.6,16,24,16z"/>
		<rect x="23" y="11" class="st5" width="3" height="4"/>
		<rect x="11" y="23" class="st5" width="4" height="3"/>
		<rect x="33" y="23" class="st5" width="4" height="3"/>
		<rect x="23" y="33" class="st5" width="3" height="4"/>
		<rect x="15.1" y="13.9" transform="matrix(0.7071 -0.7071 0.7071 0.7071 -6.3657 16.3682)" class="st5" width="3" height="4"/>
		<rect x="14.6" y="30.6" transform="matrix(0.7071 -0.7071 0.7071 0.7071 -17.8657 21.1316)" class="st5" width="4" height="3"/>
		<rect x="30.1" y="15.1" transform="matrix(0.7071 -0.7071 0.7071 0.7071 -2.3094 27.5753)" class="st5" width="4" height="3"/>
		<rect x="30.6" y="29.4" transform="matrix(0.7071 -0.7071 0.7071 0.7071 -12.8094 31.9245)" class="st5" width="3" height="4"/>
	</g>
	<circle class="st5" cx="24" cy="24" r="3"/>
</g>
</svg>
