<?xml version="1.0" encoding="utf-8"?>
<!-- Generator: Adobe Illustrator 21.0.2, SVG Export Plug-In . SVG Version: 6.00 Build 0)  -->
<svg version="1.1" id="Layer_1" xmlns="http://www.w3.org/2000/svg" xmlns:xlink="http://www.w3.org/1999/xlink" x="0px" y="0px"
	 viewBox="0 0 48 48" style="enable-background:new 0 0 48 48;" xml:space="preserve">
<style type="text/css">
	.st0{opacity:5.000000e-02;enable-background:new    ;}
	.st1{opacity:0.1;enable-background:new    ;}
	.st2{opacity:0.2;enable-background:new    ;}
	.st3{fill:#AD0000;}
	.st4{opacity:0.1;}
	.st5{fill:#F9F9F9;}
</style>
<g>
	<path class="st0" d="M36.3,5C42.2,9.1,46,15.8,46,23.5C46,35.9,35.9,46,23.5,46C15.8,46,9.1,42.2,5,36.3c1,1.8,2.3,3.5,3.8,5
		c4.1,3.7,9.5,6,15.5,6c12.7,0,23-10.3,23-23c0-6-2.3-11.4-6-15.5C39.8,7.3,38.1,6,36.3,5z M41.3,8.8c3.9,4.1,6.2,9.6,6.2,15.7
		c0,12.7-10.3,23-23,23c-6.1,0-11.6-2.4-15.7-6.2C12.9,45.4,18.7,48,25,48c12.7,0,23-10.3,23-23C48,18.7,45.4,12.9,41.3,8.8z"/>
	<path class="st1" d="M41.3,8.8c3.7,4.1,6,9.5,6,15.5c0,12.7-10.3,23-23,23c-6,0-11.4-2.3-15.5-6c4.1,3.9,9.6,6.2,15.7,6.2
		c12.7,0,23-10.3,23-23C47.5,18.4,45.1,12.9,41.3,8.8z"/>
	<path class="st2" d="M31.3,2.4C39.9,5.5,46,13.8,46,23.5C46,35.9,35.9,46,23.5,46c-9.7,0-18-6.1-21.1-14.8
		c3.9,12.1,16.9,18.7,29,14.8c9.4-3.1,15.9-11.8,15.9-21.8C47.2,14.3,40.8,5.4,31.3,2.4L31.3,2.4z"/>
</g>
<g>
	<path class="st3" d="M24,1c12.7,0,23,10.3,23,23S36.7,47,24,47S1,36.7,1,24S11.3,1,24,1z"/>
</g>
<g>
	<g>
		<g transform="translate(1,1)">
			<g class="st4">
				<g>
					<path d="M26,9h-4v15h4"/>
					<path d="M20,9.5C13.6,11.3,9,17.1,9,24c0,8.2,6.7,15,15,15s15-6.8,15-15c0-6.9-4.6-12.7-11-14.5v3.9c4.2,1.6,7.2,5.7,7.2,10.6
						c0,6.3-5,11.4-11.3,11.4c-6.2,0-11.3-5.1-11.3-11.4c0-4.9,3-9,7.3-10.7V9.5"/>
				</g>
			</g>
		</g>
	</g>
</g>
<g>
	<g>
		<g>
			<path class="st5" d="M26,9h-4v15h4"/>
			<path class="st5" d="M20,9.5C13.6,11.3,9,17.1,9,24c0,8.2,6.7,15,15,15s15-6.8,15-15c0-6.9-4.6-12.7-11-14.5v3.9
				c4.2,1.6,7.2,5.7,7.2,10.6c0,6.3-5,11.4-11.3,11.4c-6.2,0-11.3-5.1-11.3-11.4c0-4.9,3-9,7.3-10.7V9.5"/>
		</g>
	</g>
</g>
<g>
	<path class="st1" d="M40,7.5c3.7,4.1,6,9.5,6,15.5c0,12.7-10.3,23-23,23c-6,0-11.4-2.3-15.5-6c4.2,4.3,10,7,16.5,7
		c12.7,0,23-10.3,23-23C47,17.5,44.3,11.7,40,7.5z"/>
</g>
</svg>
